<svg preserveAspectRatio="none" width="100%" height="100%" overflow="visible" style="display: block;" viewBox="0 0 14 14" fill="none" xmlns="http://www.w3.org/2000/svg">
<path id="icon" d="M13.3984 0.970703C14 1.57227 14 2.5293 13.3984 3.13086L12.5781 3.95117L9.89844 1.27148L10.7188 0.451172C11.3203 -0.150391 12.2773 -0.150391 12.8789 0.451172L13.3984 0.970703ZM4.70312 6.4668L9.26953 1.90039L11.9492 4.58008L7.38281 9.14648C7.21875 9.31055 7 9.44727 6.78125 9.5293L4.34766 10.3223C4.10156 10.4043 3.85547 10.3496 3.69141 10.1582C3.5 9.99414 3.44531 9.7207 3.52734 9.50195L4.32031 7.06836C4.40234 6.84961 4.53906 6.63086 4.70312 6.4668ZM5.25 1.59961C5.71484 1.59961 6.125 2.00977 6.125 2.47461C6.125 2.9668 5.71484 3.34961 5.25 3.34961H2.625C2.13281 3.34961 1.75 3.75977 1.75 4.22461V11.2246C1.75 11.7168 2.13281 12.0996 2.625 12.0996H9.625C10.0898 12.0996 10.5 11.7168 10.5 11.2246V8.59961C10.5 8.13477 10.8828 7.72461 11.375 7.72461C11.8398 7.72461 12.25 8.13477 12.25 8.59961V11.2246C12.25 12.6738 11.0742 13.8496 9.625 13.8496H2.625C1.14844 13.8496 0 12.6738 0 11.2246V4.22461C0 2.77539 1.14844 1.59961 2.625 1.59961H5.25Z" fill="var(--fill-0, #0079CA)"/>
</svg>
