<svg preserveAspectRatio="none" width="100%" height="100%" overflow="visible" style="display: block;" viewBox="0 0 16 16" fill="none" xmlns="http://www.w3.org/2000/svg">
<path id="icon" d="M0 8C0 3.59375 3.5625 0 8 0C12.4062 0 16 3.59375 16 8C16 12.4375 12.4062 16 8 16C3.5625 16 0 12.4375 0 8ZM8 11.5C8.40625 11.5 8.75 11.1875 8.75 10.75V8.75H10.75C11.1562 8.75 11.5 8.4375 11.5 8C11.5 7.59375 11.1562 7.25 10.75 7.25H8.75V5.25C8.75 4.84375 8.40625 4.5 8 4.5C7.5625 4.5 7.25 4.84375 7.25 5.25V7.25H5.25C4.8125 7.25 4.5 7.59375 4.5 8C4.5 8.4375 4.8125 8.75 5.25 8.75H7.25V10.75C7.25 11.1875 7.5625 11.5 8 11.5Z" fill="var(--fill-0, #0079CA)"/>
</svg>
