<svg preserveAspectRatio="none" width="100%" height="100%" overflow="visible" style="display: block;" viewBox="0 0 14 16" fill="none" xmlns="http://www.w3.org/2000/svg">
<path id="icon" d="M2 8.25C2 7.5625 2.53125 7 3.25 7H5.75C6.4375 7 7 7.5625 7 8.25V10.75C7 11.4688 6.4375 12 5.75 12H3.25C2.53125 12 2 11.4688 2 10.75V8.25ZM3 8.25V10.75C3 10.9062 3.09375 11 3.25 11H5.75C5.875 11 6 10.9062 6 10.75V8.25C6 8.125 5.875 8 5.75 8H3.25C3.09375 8 3 8.125 3 8.25ZM4 2H10V0.5C10 0.25 10.2188 0 10.5 0C10.75 0 11 0.25 11 0.5V2H12C13.0938 2 14 2.90625 14 4V14C14 15.125 13.0938 16 12 16H2C0.875 16 0 15.125 0 14V4C0 2.90625 0.875 2 2 2H3V0.5C3 0.25 3.21875 0 3.5 0C3.75 0 4 0.25 4 0.5V2ZM1 14C1 14.5625 1.4375 15 2 15H12C12.5312 15 13 14.5625 13 14V6H1V14ZM1 4V5H13V4C13 3.46875 12.5312 3 12 3H2C1.4375 3 1 3.46875 1 4Z" fill="var(--fill-0, #031419)"/>
</svg>
