<svg preserveAspectRatio="none" width="100%" height="100%" overflow="visible" style="display: block;" viewBox="0 0 11 10" fill="none" xmlns="http://www.w3.org/2000/svg">
<path id="icon" d="M9.71094 8.30469C10.1172 8.67969 10.1172 9.33594 9.71094 9.71094C9.52344 9.89844 9.27344 9.99219 9.02344 9.99219C8.74219 9.99219 8.49219 9.89844 8.30469 9.71094L5.02344 6.42969L1.71094 9.71094C1.52344 9.89844 1.27344 9.99219 1.02344 9.99219C0.742188 9.99219 0.492188 9.89844 0.304688 9.71094C-0.101562 9.33594 -0.101562 8.67969 0.304688 8.30469L3.58594 4.99219L0.304688 1.71094C-0.101562 1.33594 -0.101562 0.679688 0.304688 0.304688C0.679688 -0.101562 1.33594 -0.101562 1.71094 0.304688L5.02344 3.58594L8.30469 0.304688C8.67969 -0.101562 9.33594 -0.101562 9.71094 0.304688C10.1172 0.679688 10.1172 1.33594 9.71094 1.71094L6.42969 5.02344L9.71094 8.30469Z" fill="var(--fill-0, #031419)"/>
</svg>
