<svg preserveAspectRatio="none" width="100%" height="100%" overflow="visible" style="display: block;" viewBox="0 0 15 14" fill="none" xmlns="http://www.w3.org/2000/svg">
<path id="icon" d="M7.46484 11.375C7.21875 11.375 7.02734 11.5938 7.02734 11.8125V12.25C7.02734 12.7422 6.61719 13.125 6.15234 13.125H1.77734C1.28516 13.125 0.902344 12.7422 0.902344 12.25V5.25C0.902344 4.78516 1.28516 4.375 1.77734 4.375H4.83984C5.05859 4.375 5.27734 4.18359 5.27734 3.9375C5.27734 3.71875 5.05859 3.5 4.83984 3.5H1.75C0.792969 3.5 0 4.29297 0 5.25L0.0273438 12.25C0.0273438 13.2344 0.792969 14 1.77734 14H6.15234C7.10938 14 7.90234 13.2344 7.90234 12.25V11.8125C7.90234 11.5938 7.68359 11.375 7.46484 11.375ZM13.7539 2.37891L11.6484 0.273438C11.4844 0.109375 11.2656 0 11.0195 0H7.90234C6.91797 0 6.15234 0.792969 6.15234 1.75V8.75C6.15234 9.73438 6.91797 10.5 7.90234 10.5H12.2773C13.2344 10.5 14.0273 9.73438 14.0273 8.75V3.00781C14.0273 2.76172 13.918 2.54297 13.7539 2.37891ZM11.4023 1.25781L12.7695 2.625H11.4023V1.25781ZM13.1523 8.75C13.1523 9.24219 12.7422 9.625 12.2773 9.625H7.90234C7.41016 9.625 7.02734 9.24219 7.02734 8.75V1.75C7.02734 1.28516 7.41016 0.875 7.90234 0.875H10.5273V2.625C10.5273 3.11719 10.9102 3.5 11.4023 3.5H13.1523V8.75Z" fill="var(--fill-0, #06232C)"/>
</svg>
