<svg preserveAspectRatio="none" width="100%" height="100%" overflow="visible" style="display: block;" viewBox="0 0 12 12" fill="none" xmlns="http://www.w3.org/2000/svg">
<path id="icon" d="M9.04688 0.439453C9.63281 -0.146484 10.5938 -0.146484 11.1797 0.439453L11.4609 0.720703C12.0469 1.30664 12.0469 2.26758 11.4609 2.85352L6.30469 8.00977C6.09375 8.2207 5.83594 8.33789 5.57812 8.4082L3.44531 8.90039C3.32812 8.92383 3.1875 8.90039 3.09375 8.80664C3 8.71289 2.97656 8.57227 3 8.45508L3.49219 6.32227C3.5625 6.06445 3.67969 5.80664 3.89062 5.5957L9.04688 0.439453ZM10.6406 0.978516C10.3594 0.673828 9.86719 0.673828 9.58594 0.978516L8.95312 1.58789L10.3125 2.94727L10.9219 2.31445C11.2266 2.0332 11.2266 1.54102 10.9219 1.25977L10.6406 0.978516ZM4.21875 6.48633L3.86719 8.0332L5.39062 7.68164C5.53125 7.6582 5.67188 7.58789 5.76562 7.4707L9.77344 3.46289L8.4375 2.12695L4.42969 6.13477C4.3125 6.22852 4.24219 6.36914 4.21875 6.48633ZM4.875 1.40039C5.0625 1.40039 5.25 1.58789 5.25 1.77539C5.25 1.98633 5.0625 2.15039 4.875 2.15039H1.875C1.24219 2.15039 0.75 2.66602 0.75 3.27539V10.0254C0.75 10.6582 1.24219 11.1504 1.875 11.1504H8.625C9.23438 11.1504 9.75 10.6582 9.75 10.0254V7.02539C9.75 6.83789 9.91406 6.65039 10.125 6.65039C10.3125 6.65039 10.5 6.83789 10.5 7.02539V10.0254C10.5 11.0801 9.65625 11.9004 8.625 11.9004H1.875C0.820312 11.9004 0 11.0801 0 10.0254V3.27539C0 2.24414 0.820312 1.40039 1.875 1.40039H4.875Z" fill="var(--fill-0, #06232C)"/>
</svg>
