<svg preserveAspectRatio="none" width="100%" height="100%" overflow="visible" style="display: block;" viewBox="0 0 14 11" fill="none" xmlns="http://www.w3.org/2000/svg">
<path id="icon" d="M9.75586 5.25C9.75586 6.91406 8.39648 8.25 6.75586 8.25C5.0918 8.25 3.75586 6.91406 3.75586 5.25C3.75586 3.60938 5.0918 2.25 6.75586 2.25C8.39648 2.25 9.75586 3.60938 9.75586 5.25ZM6.75586 3C5.49023 3 4.50586 4.00781 4.50586 5.25C4.50586 6.49219 5.49023 7.5 6.75586 7.5C7.99805 7.5 9.00586 6.49219 9.00586 5.25C9.00586 4.00781 7.99805 3 6.75586 3ZM11.2559 1.89844C12.3574 2.90625 13.084 4.125 13.4355 4.96875C13.5059 5.15625 13.5059 5.36719 13.4355 5.55469C13.084 6.375 12.3574 7.59375 11.2559 8.625C10.1543 9.65625 8.63086 10.5 6.75586 10.5C4.85742 10.5 3.33398 9.65625 2.23242 8.625C1.13086 7.59375 0.404297 6.375 0.0527344 5.55469C-0.0175781 5.36719 -0.0175781 5.15625 0.0527344 4.96875C0.404297 4.125 1.13086 2.90625 2.23242 1.89844C3.33398 0.867188 4.85742 0 6.75586 0C8.63086 0 10.1543 0.867188 11.2559 1.89844ZM0.755859 5.25C1.06055 6 1.74023 7.125 2.74805 8.0625C3.75586 9 5.0918 9.75 6.75586 9.75C8.39648 9.75 9.73242 9 10.7402 8.0625C11.748 7.125 12.4277 6 12.7559 5.25C12.4277 4.5 11.748 3.375 10.7402 2.4375C9.73242 1.5 8.39648 0.75 6.75586 0.75C5.0918 0.75 3.75586 1.5 2.74805 2.4375C1.74023 3.375 1.06055 4.5 0.755859 5.25Z" fill="var(--fill-0, #031419)"/>
</svg>
