<svg preserveAspectRatio="none" width="100%" height="100%" overflow="visible" style="display: block;" viewBox="0 0 12 12" fill="none" xmlns="http://www.w3.org/2000/svg">
<path id="icon" d="M0 6C0 2.69531 2.67188 0 6 0C9.30469 0 12 2.69531 12 6C12 9.32812 9.30469 12 6 12C2.67188 12 0 9.32812 0 6ZM6 8.625C6.30469 8.625 6.5625 8.39062 6.5625 8.0625V6.5625H8.0625C8.36719 6.5625 8.625 6.32812 8.625 6C8.625 5.69531 8.36719 5.4375 8.0625 5.4375H6.5625V3.9375C6.5625 3.63281 6.30469 3.375 6 3.375C5.67188 3.375 5.4375 3.63281 5.4375 3.9375V5.4375H3.9375C3.60938 5.4375 3.375 5.69531 3.375 6C3.375 6.32812 3.60938 6.5625 3.9375 6.5625H5.4375V8.0625C5.4375 8.39062 5.67188 8.625 6 8.625Z" fill="var(--fill-0, #0089E3)"/>
</svg>
