<svg preserveAspectRatio="none" width="100%" height="100%" overflow="visible" style="display: block;" viewBox="0 0 32 32" fill="none" xmlns="http://www.w3.org/2000/svg">
<path id="icon" opacity="0" d="M12.0625 0.585938C12.8438 -0.195312 14.125 -0.195312 14.9062 0.585938L15.2812 0.960938C16.0625 1.74219 16.0625 3.02344 15.2812 3.80469L8.40625 10.6797C8.125 10.9609 7.78125 11.1172 7.4375 11.2109L4.59375 11.8672C4.4375 11.8984 4.25 11.8672 4.125 11.7422C4 11.6172 3.96875 11.4297 4 11.2734L4.65625 8.42969C4.75 8.08594 4.90625 7.74219 5.1875 7.46094L12.0625 0.585938ZM14.1875 1.30469C13.8125 0.898438 13.1562 0.898438 12.7812 1.30469L11.9375 2.11719L13.75 3.92969L14.5625 3.08594C14.9688 2.71094 14.9688 2.05469 14.5625 1.67969L14.1875 1.30469ZM5.625 8.64844L5.15625 10.7109L7.1875 10.2422C7.375 10.2109 7.5625 10.1172 7.6875 9.96094L13.0312 4.61719L11.25 2.83594L5.90625 8.17969C5.75 8.30469 5.65625 8.49219 5.625 8.64844ZM6.5 1.86719C6.75 1.86719 7 2.11719 7 2.36719C7 2.64844 6.75 2.86719 6.5 2.86719H2.5C1.65625 2.86719 1 3.55469 1 4.36719V13.3672C1 14.2109 1.65625 14.8672 2.5 14.8672H11.5C12.3125 14.8672 13 14.2109 13 13.3672V9.36719C13 9.11719 13.2188 8.86719 13.5 8.86719C13.75 8.86719 14 9.11719 14 9.36719V13.3672C14 14.7734 12.875 15.8672 11.5 15.8672H2.5C1.09375 15.8672 0 14.7734 0 13.3672V4.36719C0 2.99219 1.09375 1.86719 2.5 1.86719H6.5Z" fill="var(--fill-0, #06232C)"/>
</svg>
