<svg preserveAspectRatio="none" width="100%" height="100%" overflow="visible" style="display: block;" viewBox="0 0 14 14" fill="none" xmlns="http://www.w3.org/2000/svg">
<path id="&#239;&#153;&#142;" d="M5.30371 1.52734C5.37915 1.51058 5.4518 1.52967 5.51465 1.58496C5.58116 1.64349 5.625 1.7342 5.625 1.83203V8.375H12.168C12.2658 8.375 12.3565 8.41884 12.415 8.48535C12.4703 8.5482 12.4894 8.62085 12.4727 8.69629L12.4717 8.70117C11.8905 11.4555 9.46544 13.5 6.5625 13.5C3.20192 13.5 0.5 10.7981 0.5 7.4375C0.5 4.53456 2.54446 2.10952 5.29883 1.52832L5.30371 1.52734ZM7.9375 0.500977C10.9755 0.534722 13.4643 3.0245 13.498 6.0625H7.9375V0.500977Z" stroke="var(--stroke-0, #000405)"/>
</svg>
