<svg preserveAspectRatio="none" width="100%" height="100%" overflow="visible" style="display: block;" viewBox="0 0 16 11" fill="none" xmlns="http://www.w3.org/2000/svg">
<path id="icon" d="M3.5 3.5C3.5 3.03516 3.88281 2.625 4.375 2.625H11.375C11.8398 2.625 12.25 3.03516 12.25 3.5V7C12.25 7.49219 11.8398 7.875 11.375 7.875H4.375C3.88281 7.875 3.5 7.49219 3.5 7V3.5ZM4.375 7H11.375V3.5H4.375V7ZM15.75 1.75V3.9375C15.0117 3.9375 14.4375 4.53906 14.4375 5.25C14.4375 5.98828 15.0117 6.5625 15.75 6.5625V8.75C15.75 9.73438 14.957 10.5 14 10.5H1.75C0.765625 10.5 0 9.73438 0 8.75V6.5625C0.710938 6.5625 1.3125 5.98828 1.3125 5.25C1.3125 4.53906 0.710938 3.9375 0 3.9375V1.75C0 0.792969 0.765625 0 1.75 0H14C14.957 0 15.75 0.792969 15.75 1.75ZM0.875 3.25391C1.64062 3.58203 2.1875 4.375 2.1875 5.25C2.1875 6.15234 1.64062 6.91797 0.875 7.27344V8.75C0.875 9.24219 1.25781 9.625 1.75 9.625H14C14.4648 9.625 14.875 9.24219 14.875 8.75V7.27344C14.082 6.91797 13.5625 6.15234 13.5625 5.25C13.5625 4.375 14.082 3.58203 14.875 3.25391V1.75C14.875 1.28516 14.4648 0.875 14 0.875H1.75C1.25781 0.875 0.875 1.28516 0.875 1.75V3.25391Z" fill="var(--fill-0, #031419)"/>
</svg>
