<svg preserveAspectRatio="none" width="100%" height="100%" overflow="visible" style="display: block;" viewBox="0 0 16 16" fill="none" xmlns="http://www.w3.org/2000/svg">
<path id="icon" d="M14.8855 3.72656L11.8269 0.351562C11.405 -0.105469 10.5964 -0.105469 10.1745 0.351562L7.11593 3.72656C6.62374 4.21875 6.6589 4.92188 7.11593 5.34375C7.57296 5.76562 8.27609 5.73047 8.69796 5.27344L9.85812 4.00781V14.625C9.85812 15.2578 10.3503 15.75 10.9831 15.75C11.5808 15.75 12.1081 15.2578 12.1081 14.625V4.00781L13.2331 5.27344C13.6198 5.69531 14.3581 5.76562 14.8152 5.34375C15.2722 4.92188 15.3073 4.21875 14.8855 3.72656ZM6.48312 10.5117L5.35812 11.7773V1.16016C5.35812 0.527344 4.83078 0 4.23312 0C3.60031 0 3.10812 0.527344 3.10812 1.16016V11.7773L1.94796 10.5117C1.56124 10.0898 0.822963 10.0195 0.365932 10.4414C-0.0910996 10.8633 -0.126256 11.5664 0.295619 12.0586L3.35421 15.4336C3.77609 15.8906 4.58468 15.8906 5.00656 15.4336L8.06515 12.0586C8.48703 11.5664 8.45187 10.8633 7.99484 10.4414C7.60812 10.0195 6.90499 10.0547 6.48312 10.5117Z" fill="var(--fill-0, #0079CA)"/>
</svg>
