<svg preserveAspectRatio="none" width="100%" height="100%" overflow="visible" style="display: block;" viewBox="0 0 14 9" fill="none" xmlns="http://www.w3.org/2000/svg">
<path id="icon" d="M9.92578 0.123047L13.8633 4.06055C13.9453 4.14258 14 4.25195 14 4.36133C14 4.44336 13.9453 4.58008 13.8633 4.66211L9.92578 8.59961C9.76172 8.76367 9.46094 8.76367 9.29688 8.59961C9.13281 8.43555 9.13281 8.16211 9.29688 7.9707L12.4961 4.79883H0.4375C0.191406 4.79883 0 4.58008 0 4.36133C0 4.14258 0.191406 3.92383 0.4375 3.92383H12.4961L9.29688 0.751953C9.13281 0.587891 9.13281 0.287109 9.29688 0.123047C9.46094 -0.0410156 9.76172 -0.0410156 9.92578 0.123047Z" fill="var(--fill-0, #06232C)"/>
</svg>
