<svg preserveAspectRatio="none" width="100%" height="100%" overflow="visible" style="display: block;" viewBox="0 0 13 14" fill="none" xmlns="http://www.w3.org/2000/svg">
<path id="icon" d="M3.9375 10.9375C3.9375 11.1836 3.71875 11.375 3.5 11.375C3.25391 11.375 3.0625 11.1836 3.0625 10.9375V4.8125C3.0625 4.59375 3.25391 4.375 3.5 4.375C3.71875 4.375 3.9375 4.59375 3.9375 4.8125V10.9375ZM6.5625 10.9375C6.5625 11.1836 6.34375 11.375 6.125 11.375C5.87891 11.375 5.6875 11.1836 5.6875 10.9375V4.8125C5.6875 4.59375 5.87891 4.375 6.125 4.375C6.34375 4.375 6.5625 4.59375 6.5625 4.8125V10.9375ZM9.1875 10.9375C9.1875 11.1836 8.96875 11.375 8.75 11.375C8.50391 11.375 8.3125 11.1836 8.3125 10.9375V4.8125C8.3125 4.59375 8.50391 4.375 8.75 4.375C8.96875 4.375 9.1875 4.59375 9.1875 4.8125V10.9375ZM8.47656 0.628906L9.1875 1.75H11.8125C12.0312 1.75 12.25 1.96875 12.25 2.1875C12.25 2.43359 12.0312 2.625 11.8125 2.625H11.375V11.8125C11.375 13.043 10.3906 14 9.1875 14H3.0625C1.83203 14 0.875 13.043 0.875 11.8125V2.625H0.4375C0.191406 2.625 0 2.43359 0 2.1875C0 1.96875 0.191406 1.75 0.4375 1.75H3.03516L3.74609 0.628906C3.96484 0.246094 4.40234 0 4.83984 0H7.38281C7.82031 0 8.25781 0.246094 8.47656 0.628906ZM4.04688 1.75H8.17578L7.73828 1.09375C7.65625 0.957031 7.51953 0.875 7.38281 0.875H4.83984C4.70312 0.875 4.56641 0.957031 4.48438 1.09375L4.04688 1.75ZM1.75 11.8125C1.75 12.5508 2.32422 13.125 3.0625 13.125H9.1875C9.89844 13.125 10.5 12.5508 10.5 11.8125V2.625H1.75V11.8125Z" fill="var(--fill-0, #06232C)"/>
</svg>
