<svg preserveAspectRatio="none" width="100%" height="100%" overflow="visible" style="display: block;" viewBox="0 0 4 14" fill="none" xmlns="http://www.w3.org/2000/svg">
<path id="icon" d="M1.76562 13.4844C1.10938 13.4844 0.546875 13.1719 0.234375 12.6094C-0.078125 12.0781 -0.078125 11.4219 0.234375 10.8594C0.546875 10.3281 1.10938 9.98438 1.76562 9.98438C2.39062 9.98438 2.95312 10.3281 3.26562 10.8594C3.57812 11.4219 3.57812 12.0781 3.26562 12.6094C2.95312 13.1719 2.39062 13.4844 1.76562 13.4844ZM1.76562 8.48438C1.10938 8.48438 0.546875 8.17188 0.234375 7.60938C-0.078125 7.07812 -0.078125 6.42188 0.234375 5.85938C0.546875 5.32812 1.10938 4.98438 1.76562 4.98438C2.39062 4.98438 2.95312 5.32812 3.26562 5.85938C3.57812 6.42188 3.57812 7.07812 3.26562 7.60938C2.95312 8.17188 2.39062 8.48438 1.76562 8.48438ZM0.015625 1.73438C0.015625 1.10938 0.328125 0.546875 0.890625 0.234375C1.42188 -0.078125 2.07812 -0.078125 2.64062 0.234375C3.17188 0.546875 3.51562 1.10938 3.51562 1.73438C3.51562 2.39062 3.17188 2.95312 2.64062 3.26562C2.07812 3.57812 1.42188 3.57812 0.890625 3.26562C0.328125 2.95312 0.015625 2.39062 0.015625 1.73438Z" fill="var(--fill-0, #031419)"/>
</svg>
